<svg viewBox="0 0 642 642" width="642" height="642" fill="none" xmlns="http://www.w3.org/2000/svg" preserveAspectRatio="none"><path d="M46.5 201v240H1V201h45.5zM70.3 321a119.7 119.7 0 0173-110.6c14.5-6.3 30-9.4 46.4-9.4a117.1 117.1 0 0184.4 35.2 117.8 117.8 0 0125.6 38.2c6.3 14.5 9.4 30 9.4 46.6v120h-45.5V321a73 73 0 00-21.7-52.5 71.9 71.9 0 00-52.2-21.8 73.1 73.1 0 00-68 45.2 73 73 0 00-5.9 29.1v120H70.3V321zM571.7 321a120.5 120.5 0 01-35 85 119 119 0 01-130.8 25.6 121.8 121.8 0 01-38.2-25.5 122.5 122.5 0 01-34.8-85.1 119.7 119.7 0 0173-110.6 115.6 115.6 0 0166.2-7.8 125.3 125.3 0 0136 12.2c5.5 3 10.8 6.4 15.8 10.1V201h47.8v120zm-119.4 74.3a72.3 72.3 0 0068-45.2 73 73 0 006-29.1 73 73 0 00-21.8-52.5 72 72 0 00-52.2-21.8 73.1 73.1 0 00-68 45.2 73 73 0 00-5.9 29.1 75.5 75.5 0 0021.4 52.7 75 75 0 0052.5 21.6zM641 201v240h-45.5V201H641z" fill="#222"/></svg>